<svg width="135" height="135" viewBox="0 0 135 135" fill="none" xmlns="http://www.w3.org/2000/svg">
<path d="M63.3585 49.2454L50.0151 65.9246L66.6944 82.6039L58.3568 100.957M72.9869 44.1347C75.1265 44.1347 77.1785 43.2848 78.6914 41.7718C80.2043 40.2589 81.0543 38.207 81.0543 36.0674C81.0543 33.9278 80.2043 31.8758 78.6914 30.3629C77.1785 28.85 75.1265 28 72.9869 28C70.8473 28 68.7954 28.85 67.2824 30.3629C65.7695 31.8758 64.9196 33.9278 64.9196 36.0674C64.9196 38.207 65.7695 40.2589 67.2824 41.7718C68.7954 43.2848 70.8473 44.1347 72.9869 44.1347Z" stroke="#323232" stroke-width="3" stroke-linecap="round" stroke-linejoin="round"/>
<path d="M38.3376 54.251L51.9997 40.9036L63.3585 49.2452L75.036 62.5886H81.982M48.3492 79.2679L43.3434 82.6037H30M34.0337 106.806L95.7812 98.7384V52.2019" stroke="#323232" stroke-width="3" stroke-linecap="round" stroke-linejoin="round"/>
<path d="M104.821 44.1346L95.7771 52.202L89.1216 58.2525M104.817 107.504L95.7812 98.7385" stroke="#323232" stroke-width="3" stroke-linecap="round" stroke-linejoin="round"/>
</svg>
