<svg width="42" height="42" viewBox="0 0 42 42" fill="none" xmlns="http://www.w3.org/2000/svg">
<path d="M17.7976 8.75001C18.059 8.74912 18.3173 8.80682 18.5536 8.91887C18.7898 9.03092 18.9979 9.19447 19.1626 9.39751L27.6151 19.8975C27.8725 20.2106 28.0132 20.6034 28.0132 21.0088C28.0132 21.4141 27.8725 21.8069 27.6151 22.12L18.8651 32.62C18.568 32.9774 18.1412 33.2021 17.6784 33.2448C17.2157 33.2875 16.755 33.1445 16.3976 32.8475C16.0402 32.5505 15.8155 32.1236 15.7728 31.6609C15.7301 31.1981 15.873 30.7374 16.1701 30.38L23.9926 21L16.4326 11.62C16.2186 11.3631 16.0827 11.0503 16.0409 10.7186C15.9991 10.3869 16.0532 10.0502 16.1968 9.74825C16.3404 9.44633 16.5675 9.19186 16.8511 9.01495C17.1348 8.83804 17.4633 8.7461 17.7976 8.75001Z" fill="#787878"/>
</svg>
