<svg width="14" height="10" viewBox="0 0 14 10" fill="none" xmlns="http://www.w3.org/2000/svg">
<path d="M8.35955 9.73094C8.17978 9.55157 8.09348 9.33483 8.10067 9.08072C8.10846 8.82661 8.20225 8.60987 8.38202 8.43049L10.9213 5.89686H0.898876C0.644195 5.89686 0.430562 5.81076 0.257978 5.63856C0.0859927 5.46697 0 5.25411 0 5C0 4.74589 0.0859927 4.53273 0.257978 4.36054C0.430562 4.18894 0.644195 4.10314 0.898876 4.10314H10.9213L8.35955 1.54708C8.17978 1.36771 8.08989 1.15456 8.08989 0.907623C8.08989 0.661285 8.17978 0.44843 8.35955 0.269058C8.53933 0.0896858 8.75296 0 9.00045 0C9.24734 0 9.46067 0.0896858 9.64045 0.269058L13.7528 4.3722C13.8427 4.46188 13.9065 4.55904 13.9443 4.66368C13.9814 4.76831 14 4.88042 14 5C14 5.11958 13.9814 5.23169 13.9443 5.33632C13.9065 5.44096 13.8427 5.53812 13.7528 5.6278L9.61798 9.75336C9.45318 9.91779 9.24734 10 9.00045 10C8.75296 10 8.53933 9.91031 8.35955 9.73094Z" fill="#787878"/>
</svg>
