<svg width="29" height="21" viewBox="0 0 29 21" fill="none" xmlns="http://www.w3.org/2000/svg">
<path d="M17.3162 20.435C16.9438 20.0583 16.7651 19.6031 16.78 19.0695C16.7961 18.5359 16.9904 18.0807 17.3628 17.704L22.6228 12.3834H1.86196C1.3344 12.3834 0.891878 12.2026 0.534382 11.841C0.178128 11.4806 0 11.0336 0 10.5C0 9.96637 0.178128 9.51874 0.534382 9.15713C0.891878 8.79677 1.3344 8.61659 1.86196 8.61659H22.6228L17.3162 3.24888C16.9438 2.8722 16.7576 2.42457 16.7576 1.90601C16.7576 1.3887 16.9438 0.941703 17.3162 0.565022C17.6886 0.18834 18.1311 0 18.6438 0C19.1552 0 19.5971 0.18834 19.9695 0.565022L28.488 9.18161C28.6742 9.36995 28.8064 9.57399 28.8846 9.79372C28.9615 10.0135 29 10.2489 29 10.5C29 10.7511 28.9615 10.9865 28.8846 11.2063C28.8064 11.426 28.6742 11.63 28.488 11.8184L19.923 20.4821C19.5816 20.8274 19.1552 21 18.6438 21C18.1311 21 17.6886 20.8117 17.3162 20.435Z" fill="#323232"/>
</svg>
