<svg width="50" height="50" viewBox="0 0 50 50" fill="none" xmlns="http://www.w3.org/2000/svg">
<path d="M12.9853 12.1542L13.9123 7.51667C14.1012 6.57176 14.6117 5.72152 15.357 5.11071C16.1023 4.4999 17.0362 4.16629 17.9998 4.16667H31.9998C32.9634 4.16629 33.8974 4.4999 34.6427 5.11071C35.3879 5.72152 35.8985 6.57176 36.0873 7.51667L37.0144 12.1542C37.1599 12.8808 37.5087 13.5512 38.0203 14.0875C38.5318 14.6237 39.185 15.0037 39.904 15.1833C41.5978 15.607 43.1013 16.5847 44.1756 17.961C45.2499 19.3373 45.8333 21.0332 45.8332 22.7792V37.5C45.8332 39.7101 44.9552 41.8298 43.3924 43.3926C41.8296 44.9554 39.71 45.8333 37.4998 45.8333H12.4998C10.2897 45.8333 8.17008 44.9554 6.60728 43.3926C5.04448 41.8298 4.1665 39.7101 4.1665 37.5V22.7792C4.16634 21.0332 4.74979 19.3373 5.8241 17.961C6.8984 16.5847 8.40192 15.607 10.0957 15.1833C10.8147 15.0037 11.4679 14.6237 11.9794 14.0875C12.4909 13.5512 12.8397 12.8808 12.9853 12.1542V12.1542Z" stroke="white" stroke-width="3" stroke-linecap="round" stroke-linejoin="round"/>
<path d="M24.9998 37.5C29.6022 37.5 33.3332 33.769 33.3332 29.1667C33.3332 24.5643 29.6022 20.8333 24.9998 20.8333C20.3975 20.8333 16.6665 24.5643 16.6665 29.1667C16.6665 33.769 20.3975 37.5 24.9998 37.5Z" stroke="white" stroke-width="3" stroke-linecap="round" stroke-linejoin="round"/>
<path d="M22.9165 12.5H27.0832" stroke="white" stroke-width="3" stroke-linecap="round" stroke-linejoin="round"/>
</svg>
