<svg width="79" height="80" viewBox="0 0 79 80" fill="none" xmlns="http://www.w3.org/2000/svg">
<path d="M43.0824 40.6854L51.8949 49.4979C52.6129 50.216 52.9719 51.1142 52.9719 52.1926C52.9719 53.2684 52.6129 54.1979 51.8949 54.9812C51.1115 55.7646 50.182 56.1562 49.1062 56.1562C48.0278 56.1562 47.0969 55.7646 46.3136 54.9812L37.9907 46.6583C37.0768 45.7444 36.3914 44.7326 35.9344 43.6229C35.4775 42.5132 35.249 41.3055 35.249 40V28.25C35.249 27.1403 35.625 26.2094 36.377 25.4574C37.1264 24.708 38.056 24.3333 39.1657 24.3333C40.2754 24.3333 41.2063 24.708 41.9583 25.4574C42.7077 26.2094 43.0824 27.1403 43.0824 28.25V40.6854ZM39.1657 8.66666C40.2754 8.66666 41.2063 9.04136 41.9583 9.79075C42.7077 10.5427 43.0824 11.4736 43.0824 12.5833C43.0824 13.693 42.7077 14.6239 41.9583 15.3759C41.2063 16.1253 40.2754 16.5 39.1657 16.5C38.056 16.5 37.1264 16.1253 36.377 15.3759C35.625 14.6239 35.249 13.693 35.249 12.5833C35.249 11.4736 35.625 10.5427 36.377 9.79075C37.1264 9.04136 38.056 8.66666 39.1657 8.66666ZM70.499 40C70.499 41.1097 70.123 42.0393 69.371 42.7887C68.6216 43.5407 67.6921 43.9167 66.5824 43.9167C65.4726 43.9167 64.5431 43.5407 63.7937 42.7887C63.0417 42.0393 62.6657 41.1097 62.6657 40C62.6657 38.8903 63.0417 37.9594 63.7937 37.2074C64.5431 36.458 65.4726 36.0833 66.5824 36.0833C67.6921 36.0833 68.6216 36.458 69.371 37.2074C70.123 37.9594 70.499 38.8903 70.499 40ZM39.1657 63.5C40.2754 63.5 41.2063 63.876 41.9583 64.628C42.7077 65.3774 43.0824 66.3069 43.0824 67.4167C43.0824 68.5264 42.7077 69.4559 41.9583 70.2053C41.2063 70.9573 40.2754 71.3333 39.1657 71.3333C38.056 71.3333 37.1264 70.9573 36.377 70.2053C35.625 69.4559 35.249 68.5264 35.249 67.4167C35.249 66.3069 35.625 65.3774 36.377 64.628C37.1264 63.876 38.056 63.5 39.1657 63.5ZM15.6657 40C15.6657 41.1097 15.291 42.0393 14.5416 42.7887C13.7896 43.5407 12.8587 43.9167 11.749 43.9167C10.6393 43.9167 9.70844 43.5407 8.95644 42.7887C8.20705 42.0393 7.83236 41.1097 7.83236 40C7.83236 38.8903 8.20705 37.9594 8.95644 37.2074C9.70844 36.458 10.6393 36.0833 11.749 36.0833C12.8587 36.0833 13.7896 36.458 14.5416 37.2074C15.291 37.9594 15.6657 38.8903 15.6657 40ZM39.1657 79.1667C33.7476 79.1667 28.656 78.1379 23.8907 76.0803C19.1254 74.0254 14.9803 71.2354 11.4553 67.7104C7.93027 64.1854 5.1403 60.0403 3.08536 55.275C1.0278 50.5097 -0.000976562 45.418 -0.000976562 40C-0.000976562 34.5819 1.0278 29.4903 3.08536 24.725C5.1403 19.9597 7.93027 15.8146 11.4553 12.2896C14.9803 8.76458 19.1254 5.9733 23.8907 3.91574C28.656 1.8608 33.7476 0.833328 39.1657 0.833328C44.5837 0.833328 49.6754 1.8608 54.4407 3.91574C59.206 5.9733 63.3511 8.76458 66.8761 12.2896C70.4011 15.8146 73.1911 19.9597 75.246 24.725C77.3036 29.4903 78.3324 34.5819 78.3324 40C78.3324 45.418 77.3036 50.5097 75.246 55.275C73.1911 60.0403 70.4011 64.1854 66.8761 67.7104C63.3511 71.2354 59.206 74.0254 54.4407 76.0803C49.6754 78.1379 44.5837 79.1667 39.1657 79.1667ZM39.1657 71.3333C47.9129 71.3333 55.3219 68.2979 61.3928 62.2271C67.4636 56.1562 70.499 48.7472 70.499 40C70.499 31.2528 67.4636 23.8437 61.3928 17.7729C55.3219 11.7021 47.9129 8.66666 39.1657 8.66666C30.4185 8.66666 23.0094 11.7021 16.9386 17.7729C10.8678 23.8437 7.83236 31.2528 7.83236 40C7.83236 48.7472 10.8678 56.1562 16.9386 62.2271C23.0094 68.2979 30.4185 71.3333 39.1657 71.3333Z" fill="#787878"/>
</svg>
