<svg width="42" height="42" viewBox="0 0 42 42" fill="none" xmlns="http://www.w3.org/2000/svg">
<path d="M7.87512 21C7.87691 18.939 8.36343 16.9074 9.29538 15.0691C10.2273 13.2309 11.5786 11.6376 13.24 10.418L14.2571 4.77424C14.3687 4.16894 14.6894 3.62208 15.1632 3.22923C15.637 2.83638 16.2338 2.62252 16.8493 2.62502H25.1509C25.7664 2.62252 26.3632 2.83638 26.837 3.22923C27.3108 3.62208 27.6315 4.16894 27.7431 4.77424L28.7603 10.418C30.4218 11.6371 31.773 13.2304 32.7043 15.0688C33.6356 16.9073 34.1208 18.9392 34.1208 21C34.1208 23.0609 33.6356 25.0928 32.7043 26.9312C31.773 28.7696 30.4218 30.3629 28.7603 31.5821L27.7431 37.2258C27.6315 37.8311 27.3108 38.378 26.837 38.7708C26.3632 39.1637 25.7664 39.3775 25.1509 39.375H16.8493C16.2338 39.3775 15.637 39.1637 15.1632 38.7708C14.6894 38.378 14.3687 37.8311 14.2571 37.2258L13.24 31.5821C11.5786 30.3624 10.2273 28.7692 9.29538 26.9309C8.36343 25.0927 7.87691 23.061 7.87512 21V21ZM25.1509 5.25002H16.8493L16.2095 8.79377C19.2857 7.56829 22.7145 7.56829 25.7907 8.79377L25.1509 5.25002ZM31.5001 21C31.5001 18.9233 30.8843 16.8932 29.7305 15.1665C28.5768 13.4398 26.9369 12.094 25.0183 11.2993C23.0997 10.5046 20.9885 10.2966 18.9517 10.7018C16.9149 11.1069 15.0439 12.1069 13.5755 13.5754C12.107 15.0438 11.107 16.9148 10.7019 18.9516C10.2967 20.9884 10.5047 23.0996 11.2994 25.0182C12.0941 26.9368 13.4399 28.5767 15.1666 29.7305C16.8933 30.8842 18.9234 31.5 21.0001 31.5C23.7836 31.4957 26.4518 30.388 28.4199 28.4198C30.3881 26.4517 31.4958 23.7835 31.5001 21V21ZM16.8493 36.75H25.1509L25.7907 33.2063C22.7145 34.4317 19.2857 34.4317 16.2095 33.2063L16.8493 36.75ZM22.3126 21V14.4375C22.3126 14.0894 22.1743 13.7556 21.9282 13.5094C21.6821 13.2633 21.3482 13.125 21.0001 13.125C20.652 13.125 20.3182 13.2633 20.072 13.5094C19.8259 13.7556 19.6876 14.0894 19.6876 14.4375V19.6875H14.4376C14.0895 19.6875 13.7557 19.8258 13.5095 20.0719C13.2634 20.3181 13.1251 20.6519 13.1251 21C13.1251 21.3481 13.2634 21.682 13.5095 21.9281C13.7557 22.1742 14.0895 22.3125 14.4376 22.3125H21.0001C21.3482 22.3125 21.6821 22.1742 21.9282 21.9281C22.1743 21.682 22.3126 21.3481 22.3126 21Z" fill="#323232"/>
</svg>
