<svg width="32" height="32" viewBox="0 0 32 32" fill="none" xmlns="http://www.w3.org/2000/svg">
<path d="M9.3335 12L16.0002 16.6667L22.6668 12" stroke="#787878" stroke-width="1.5" stroke-linecap="round" stroke-linejoin="round"/>
<path d="M2.66675 22.6666V9.33329C2.66675 8.62605 2.9477 7.94777 3.4478 7.44767C3.94789 6.94758 4.62617 6.66663 5.33341 6.66663H26.6667C27.374 6.66663 28.0523 6.94758 28.5524 7.44767C29.0525 7.94777 29.3334 8.62605 29.3334 9.33329V22.6666C29.3334 23.3739 29.0525 24.0521 28.5524 24.5522C28.0523 25.0523 27.374 25.3333 26.6667 25.3333H5.33341C4.62617 25.3333 3.94789 25.0523 3.4478 24.5522C2.9477 24.0521 2.66675 23.3739 2.66675 22.6666Z" stroke="#787878" stroke-width="1.5"/>
</svg>
