<svg width="135" height="135" viewBox="0 0 135 135" fill="none" xmlns="http://www.w3.org/2000/svg">
<path d="M41.7818 40H26.1273C25.2376 40 24.3843 40.354 23.7552 40.9841C23.1261 41.6142 22.7727 42.4689 22.7727 43.36V92.64C22.7727 93.0812 22.8595 93.5182 23.0281 93.9258C23.1966 94.3335 23.4437 94.7039 23.7552 95.0159C24.0667 95.3279 24.4365 95.5754 24.8435 95.7442C25.2505 95.9131 25.6867 96 26.1273 96H41.7818C42.2223 96 42.6585 95.9131 43.0655 95.7442C43.4725 95.5754 43.8423 95.3279 44.1538 95.0159C44.4653 94.7039 44.7124 94.3335 44.881 93.9258C45.0496 93.5182 45.1363 93.0812 45.1363 92.64V43.36C45.1363 42.4689 44.7829 41.6142 44.1538 40.9841C43.5247 40.354 42.6715 40 41.7818 40ZM108.873 40H93.2182C92.3285 40 91.4752 40.354 90.8461 40.9841C90.217 41.6142 89.8636 42.4689 89.8636 43.36V92.64C89.8636 93.0812 89.9504 93.5182 90.119 93.9258C90.2875 94.3335 90.5346 94.7039 90.8461 95.0159C91.1576 95.3279 91.5274 95.5754 91.9344 95.7442C92.3414 95.9131 92.7776 96 93.2182 96H108.873C109.313 96 109.749 95.9131 110.156 95.7442C110.563 95.5754 110.933 95.3279 111.245 95.0159C111.556 94.7039 111.803 94.3335 111.972 93.9258C112.14 93.5182 112.227 93.0812 112.227 92.64V43.36C112.227 42.4689 111.874 41.6142 111.245 40.9841C110.616 40.354 109.762 40 108.873 40Z" stroke="#323232" stroke-width="3.5" stroke-linecap="round" stroke-linejoin="round"/>
<path d="M45.1364 68H89.8636M6 81.44V54.56C6 53.6689 6.35342 52.8143 6.98252 52.1841C7.61162 51.554 8.46486 51.2 9.35455 51.2H19.4182C20.3079 51.2 21.1611 51.554 21.7902 52.1841C22.4193 52.8143 22.7727 53.6689 22.7727 54.56V81.44C22.7727 82.3311 22.4193 83.1858 21.7902 83.8159C21.1611 84.446 20.3079 84.8 19.4182 84.8H9.35455C8.46486 84.8 7.61162 84.446 6.98252 83.8159C6.35342 83.1858 6 82.3311 6 81.44ZM129 81.44V54.56C129 53.6689 128.647 52.8143 128.017 52.1841C127.388 51.554 126.535 51.2 125.645 51.2H115.582C114.692 51.2 113.839 51.554 113.21 52.1841C112.581 52.8143 112.227 53.6689 112.227 54.56V81.44C112.227 82.3311 112.581 83.1858 113.21 83.8159C113.839 84.446 114.692 84.8 115.582 84.8H125.645C126.535 84.8 127.388 84.446 128.017 83.8159C128.647 83.1858 129 82.3311 129 81.44Z" stroke="#323232" stroke-width="3.5" stroke-linecap="round" stroke-linejoin="round"/>
</svg>
