<svg width="42" height="42" viewBox="0 0 42 42" fill="none" xmlns="http://www.w3.org/2000/svg">
<path d="M12.9989 12.4443H8.1286C7.85181 12.4443 7.58635 12.5545 7.39064 12.7505C7.19492 12.9465 7.08496 13.2124 7.08496 13.4897V28.8212C7.08496 28.9585 7.11196 29.0944 7.1644 29.2213C7.21685 29.3481 7.29372 29.4633 7.39064 29.5604C7.48755 29.6575 7.6026 29.7345 7.72921 29.787C7.85583 29.8395 7.99154 29.8666 8.1286 29.8666H12.9989C13.136 29.8666 13.2717 29.8395 13.3983 29.787C13.5249 29.7345 13.64 29.6575 13.7369 29.5604C13.8338 29.4633 13.9106 29.3481 13.9631 29.2213C14.0155 29.0944 14.0425 28.9585 14.0425 28.8212V13.4897C14.0425 13.2124 13.9326 12.9465 13.7369 12.7505C13.5411 12.5545 13.2757 12.4443 12.9989 12.4443ZM33.8716 12.4443H29.0013C28.7245 12.4443 28.4591 12.5545 28.2634 12.7505C28.0676 12.9465 27.9577 13.2124 27.9577 13.4897V28.8212C27.9577 28.9585 27.9847 29.0944 28.0371 29.2213C28.0896 29.3481 28.1665 29.4633 28.2634 29.5604C28.3603 29.6575 28.4753 29.7345 28.6019 29.787C28.7286 29.8395 28.8643 29.8666 29.0013 29.8666H33.8716C34.0087 29.8666 34.1444 29.8395 34.271 29.787C34.3976 29.7345 34.5127 29.6575 34.6096 29.5604C34.7065 29.4633 34.7834 29.3481 34.8358 29.2213C34.8883 29.0944 34.9153 28.9585 34.9153 28.8212V13.4897C34.9153 13.2124 34.8053 12.9465 34.6096 12.7505C34.4139 12.5545 34.1484 12.4443 33.8716 12.4443Z" stroke="#323232" stroke-width="3" stroke-linecap="round" stroke-linejoin="round"/>
<path d="M14.0425 21.1554H27.9576M1.8667 25.3367V16.974C1.8667 16.6968 1.97665 16.4309 2.17237 16.2349C2.36809 16.0388 2.63355 15.9287 2.91034 15.9287H6.04124C6.31803 15.9287 6.58349 16.0388 6.77921 16.2349C6.97493 16.4309 7.08488 16.6968 7.08488 16.974V25.3367C7.08488 25.6139 6.97493 25.8798 6.77921 26.0759C6.58349 26.2719 6.31803 26.382 6.04124 26.382H2.91034C2.63355 26.382 2.36809 26.2719 2.17237 26.0759C1.97665 25.8798 1.8667 25.6139 1.8667 25.3367ZM40.1334 25.3367V16.974C40.1334 16.6968 40.0234 16.4309 39.8277 16.2349C39.632 16.0388 39.3665 15.9287 39.0897 15.9287H35.9588C35.682 15.9287 35.4166 16.0388 35.2209 16.2349C35.0251 16.4309 34.9152 16.6968 34.9152 16.974V25.3367C34.9152 25.6139 35.0251 25.8798 35.2209 26.0759C35.4166 26.2719 35.682 26.382 35.9588 26.382H39.0897C39.3665 26.382 39.632 26.2719 39.8277 26.0759C40.0234 25.8798 40.1334 25.6139 40.1334 25.3367Z" stroke="#323232" stroke-width="3" stroke-linecap="round" stroke-linejoin="round"/>
</svg>
