<svg width="42" height="42" viewBox="0 0 42 42" fill="none" xmlns="http://www.w3.org/2000/svg">
<path d="M37.8821 26.7095C38.0551 27.0099 38.1021 27.3667 38.013 27.7017C37.9238 28.0368 37.7057 28.3229 37.4063 28.4977C37.2085 28.6176 36.9813 28.6801 36.7501 28.6782C36.5177 28.6803 36.2889 28.6206 36.0871 28.5053C35.8854 28.39 35.7178 28.2232 35.6016 28.022L32.5829 22.8048C30.8116 23.9963 28.8623 24.8989 26.8079 25.479L27.7594 30.8767C27.8169 31.22 27.7374 31.5721 27.538 31.8575C27.3386 32.1428 27.0352 32.3385 26.693 32.4024H26.4633C26.1544 32.4033 25.8551 32.2952 25.618 32.0972C25.3809 31.8991 25.2213 31.6238 25.1673 31.3196L24.2321 26.004C23.1621 26.1635 22.0819 26.2458 21.0001 26.2501C19.9132 26.2506 18.8276 26.1738 17.7516 26.0204L16.8165 31.336C16.7624 31.6402 16.6028 31.9155 16.3657 32.1136C16.1286 32.3117 15.8293 32.4197 15.5204 32.4188H15.2907C14.9485 32.3549 14.6451 32.1592 14.4457 31.8739C14.2463 31.5885 14.1668 31.2364 14.2243 30.8931L15.1923 25.479C13.1313 24.9027 11.1761 23.9998 9.40085 22.8048L6.36569 28.0548C6.24844 28.2515 6.08293 28.415 5.88484 28.5298C5.68674 28.6446 5.4626 28.707 5.23366 28.711C5.00366 28.7102 4.77791 28.649 4.57903 28.5335C4.38015 28.4179 4.21512 28.2522 4.10047 28.0528C3.98582 27.8534 3.92558 27.6274 3.92578 27.3974C3.92599 27.1674 3.98663 26.9415 4.10163 26.7423L7.30085 21.197C6.18289 20.2382 5.15588 19.1782 4.23288 18.0306C4.1238 17.8976 4.04229 17.7442 3.99308 17.5794C3.94388 17.4145 3.92798 17.2416 3.94631 17.0706C3.96463 16.8995 4.01682 16.7339 4.09982 16.5832C4.18282 16.4326 4.29497 16.2999 4.42975 16.1931C4.56173 16.0831 4.71425 16.0004 4.87846 15.9499C5.04267 15.8994 5.21528 15.882 5.38627 15.8988C5.55725 15.9156 5.72319 15.9662 5.87443 16.0477C6.02567 16.1292 6.1592 16.24 6.26725 16.3735C7.29423 17.6539 8.46699 18.8101 9.76178 19.8188H9.77819C12.9819 22.318 16.937 23.6595 21.0001 23.6251C25.8071 23.6251 29.4985 21.9352 32.2055 19.8352H32.2383C33.5331 18.8265 34.7059 17.6703 35.7329 16.3899C35.8397 16.2552 35.9724 16.143 36.123 16.06C36.2737 15.977 36.4393 15.9248 36.6104 15.9065C36.7814 15.8882 36.9544 15.9041 37.1192 15.9533C37.284 16.0025 37.4374 16.084 37.5704 16.1931C37.7052 16.2999 37.8173 16.4326 37.9003 16.5832C37.9833 16.7339 38.0355 16.8995 38.0538 17.0706C38.0721 17.2416 38.0562 17.4145 38.007 17.5794C37.9578 17.7442 37.8763 17.8976 37.7673 18.0306C36.8443 19.1782 35.8172 20.2382 34.6993 21.197L37.8821 26.7095Z" fill="#323232"/>
</svg>
