<svg width="26" height="26" viewBox="0 0 26 26" fill="none" xmlns="http://www.w3.org/2000/svg">
<path d="M12.1875 12.1875L21.9375 12.1875C22.153 12.1875 22.3597 12.2731 22.512 12.4255C22.6644 12.5778 22.75 12.7845 22.75 13C22.75 13.2155 22.6644 13.4222 22.512 13.5745C22.3597 13.7269 22.153 13.8125 21.9375 13.8125L12.1875 13.8125C11.972 13.8125 11.7653 13.7269 11.613 13.5745C11.4606 13.4222 11.375 13.2155 11.375 13C11.375 12.7845 11.4606 12.5778 11.613 12.4255C11.7653 12.2731 11.972 12.1875 12.1875 12.1875ZM19.5 5.6875C19.5 5.90299 19.5856 6.10965 19.738 6.26203C19.8903 6.4144 20.097 6.5 20.3125 6.5L21.9375 6.5C22.153 6.5 22.3597 6.4144 22.512 6.26202C22.6644 6.10965 22.75 5.90299 22.75 5.6875C22.75 5.47201 22.6644 5.26535 22.512 5.11298C22.3597 4.9606 22.153 4.875 21.9375 4.875L20.3125 4.875C20.097 4.875 19.8903 4.9606 19.738 5.11298C19.5856 5.26535 19.5 5.47201 19.5 5.6875ZM16.25 3.25L16.25 4.875L4.0625 4.875C3.84701 4.875 3.64035 4.9606 3.48798 5.11298C3.3356 5.26535 3.25 5.47201 3.25 5.6875C3.25 5.90299 3.3356 6.10965 3.48798 6.26203C3.64035 6.4144 3.84701 6.5 4.0625 6.5L16.25 6.5L16.25 8.125C16.25 8.34049 16.3356 8.54715 16.488 8.69953C16.6403 8.8519 16.847 8.9375 17.0625 8.9375C17.278 8.9375 17.4847 8.8519 17.637 8.69953C17.7894 8.54715 17.875 8.34049 17.875 8.125L17.875 3.25C17.875 3.03451 17.7894 2.82785 17.637 2.67548C17.4847 2.5231 17.278 2.4375 17.0625 2.4375C16.847 2.4375 16.6403 2.5231 16.488 2.67548C16.3356 2.82785 16.25 3.03451 16.25 3.25ZM16.25 20.3125C16.25 20.528 16.3356 20.7347 16.488 20.887C16.6403 21.0394 16.847 21.125 17.0625 21.125L21.9375 21.125C22.153 21.125 22.3597 21.0394 22.512 20.887C22.6644 20.7347 22.75 20.528 22.75 20.3125C22.75 20.097 22.6644 19.8903 22.512 19.738C22.3597 19.5856 22.153 19.5 21.9375 19.5L17.0625 19.5C16.847 19.5 16.6403 19.5856 16.488 19.738C16.3356 19.8903 16.25 20.097 16.25 20.3125ZM13 17.875L13 19.5L4.0625 19.5C3.84701 19.5 3.64035 19.5856 3.48798 19.738C3.3356 19.8903 3.25 20.097 3.25 20.3125C3.25 20.528 3.3356 20.7347 3.48798 20.887C3.64035 21.0394 3.84701 21.125 4.0625 21.125L13 21.125L13 22.75C13 22.9655 13.0856 23.1722 13.238 23.3245C13.3903 23.4769 13.597 23.5625 13.8125 23.5625C14.028 23.5625 14.2347 23.4769 14.387 23.3245C14.5394 23.1722 14.625 22.9655 14.625 22.75L14.625 17.875C14.625 17.6595 14.5394 17.4528 14.387 17.3005C14.2347 17.1481 14.028 17.0625 13.8125 17.0625C13.597 17.0625 13.3903 17.1481 13.238 17.3005C13.0856 17.4528 13 17.6595 13 17.875ZM8.125 10.5625L8.125 12.1875L4.0625 12.1875C3.84701 12.1875 3.64035 12.2731 3.48798 12.4255C3.3356 12.5778 3.25 12.7845 3.25 13C3.25 13.2155 3.3356 13.4222 3.48798 13.5745C3.64035 13.7269 3.84701 13.8125 4.0625 13.8125L8.125 13.8125L8.125 15.4375C8.125 15.653 8.2106 15.8597 8.36298 16.012C8.51535 16.1644 8.72201 16.25 8.9375 16.25C9.15299 16.25 9.35965 16.1644 9.51202 16.012C9.6644 15.8597 9.75 15.653 9.75 15.4375L9.75 10.5625C9.75 10.347 9.6644 10.1403 9.51202 9.98798C9.35965 9.8356 9.15299 9.75 8.9375 9.75C8.72201 9.75 8.51535 9.8356 8.36298 9.98798C8.2106 10.1403 8.125 10.347 8.125 10.5625Z" fill="#323232"/>
</svg>
