<svg width="52" height="55" viewBox="0 0 52 55" fill="none" xmlns="http://www.w3.org/2000/svg">
<path d="M23.4169 15.773L14.8712 26.4551L25.5533 37.1372L20.2135 48.8914M29.5833 12.5C30.9536 12.5 32.2677 11.9556 33.2367 10.9867C34.2056 10.0177 34.75 8.70358 34.75 7.33329C34.75 5.96301 34.2056 4.64885 33.2367 3.67991C32.2677 2.71097 30.9536 2.16663 29.5833 2.16663C28.213 2.16663 26.8989 2.71097 25.9299 3.67991C24.961 4.64885 24.4166 5.96301 24.4166 7.33329C24.4166 8.70358 24.961 10.0177 25.9299 10.9867C26.8989 11.9556 28.213 12.5 29.5833 12.5Z" stroke="#323232" stroke-width="3" stroke-linecap="round" stroke-linejoin="round"/>
<path d="M7.39248 18.9789L16.1422 10.4307L23.4169 15.773L30.8957 24.3187H35.3442M13.8043 35.0007L10.5984 37.1372H2.05273M4.63607 52.6372L44.1817 47.4705V17.6666" stroke="#323232" stroke-width="3" stroke-linecap="round" stroke-linejoin="round"/>
<path d="M49.971 12.5L44.1791 17.6667L39.9166 21.5417M49.9684 53.0842L44.1817 47.4706" stroke="#323232" stroke-width="3" stroke-linecap="round" stroke-linejoin="round"/>
</svg>
