<svg width="42" height="42" viewBox="0 0 42 42" fill="none" xmlns="http://www.w3.org/2000/svg">
<path d="M21.0001 11.8126C19.1829 11.8126 17.4066 12.3514 15.8958 13.3609C14.3849 14.3705 13.2073 15.8054 12.5119 17.4842C11.8165 19.163 11.6346 21.0103 11.9891 22.7925C12.3436 24.5747 13.2186 26.2117 14.5035 27.4966C15.7884 28.7815 17.4255 29.6565 19.2077 30.011C20.9899 30.3655 22.8372 30.1836 24.516 29.4882C26.1948 28.7928 27.6297 27.6152 28.6392 26.1044C29.6487 24.5935 30.1876 22.8172 30.1876 21.0001C30.1876 18.5634 29.2196 16.2265 27.4966 14.5035C25.7736 12.7805 23.4367 11.8126 21.0001 11.8126ZM21.0001 27.5626C19.7021 27.5626 18.4333 27.1777 17.3541 26.4566C16.2749 25.7355 15.4338 24.7106 14.9371 23.5114C14.4404 22.3123 14.3104 20.9928 14.5637 19.7198C14.8169 18.4468 15.4419 17.2775 16.3597 16.3597C17.2775 15.4419 18.4468 14.8169 19.7198 14.5637C20.9928 14.3104 22.3123 14.4404 23.5114 14.9371C24.7106 15.4338 25.7355 16.2749 26.4566 17.3541C27.1777 18.4333 27.5626 19.7021 27.5626 21.0001C27.5626 22.7405 26.8712 24.4097 25.6405 25.6405C24.4097 26.8712 22.7405 27.5626 21.0001 27.5626ZM38.5219 24.6751L36.0774 21.4266C36.0938 21.1313 36.0774 20.8196 36.0774 20.5899L38.5219 17.3251C38.6435 17.1662 38.7261 16.981 38.7632 16.7844C38.8002 16.5878 38.7906 16.3853 38.7352 16.193C38.3218 14.6805 37.721 13.2255 36.9469 11.8618C36.8471 11.6886 36.7098 11.5398 36.5452 11.4263C36.3806 11.3127 36.1928 11.2373 35.9954 11.2055L31.9758 10.6313L31.3688 10.0243L30.7946 6.00475C30.7628 5.80734 30.6874 5.6195 30.5739 5.4549C30.4604 5.29029 30.3116 5.15306 30.1383 5.05319C28.7747 4.27912 27.3197 3.67838 25.8071 3.26491C25.6149 3.2095 25.4123 3.19993 25.2157 3.23697C25.0191 3.27401 24.834 3.35663 24.6751 3.47819L21.4266 5.90631H20.5735L17.3251 3.47819C17.1662 3.35663 16.981 3.27401 16.7844 3.23697C16.5878 3.19993 16.3853 3.2095 16.193 3.26491C14.6805 3.67838 13.2255 4.27912 11.8618 5.05319C11.6886 5.15306 11.5398 5.29029 11.4263 5.4549C11.3127 5.6195 11.2373 5.80734 11.2055 6.00475L10.6313 10.0243L10.0243 10.6313L6.00475 11.2055C5.80734 11.2373 5.6195 11.3127 5.4549 11.4263C5.29029 11.5398 5.15306 11.6886 5.05319 11.8618C4.27912 13.2255 3.67838 14.6805 3.26491 16.193C3.2095 16.3853 3.19993 16.5878 3.23697 16.7844C3.27401 16.981 3.35663 17.1662 3.47819 17.3251L5.92272 20.5735V21.4102L3.47819 24.6751C3.35663 24.834 3.27401 25.0191 3.23697 25.2157C3.19993 25.4123 3.2095 25.6149 3.26491 25.8071C3.67838 27.3197 4.27912 28.7747 5.05319 30.1383C5.15306 30.3116 5.29029 30.4604 5.4549 30.5739C5.6195 30.6874 5.80734 30.7628 6.00475 30.7946L10.0243 31.3688L10.6313 31.9758L11.2055 35.9954C11.2373 36.1928 11.3127 36.3806 11.4263 36.5452C11.5398 36.7098 11.6886 36.8471 11.8618 36.9469C13.2255 37.721 14.6805 38.3218 16.193 38.7352C16.305 38.7677 16.421 38.7842 16.5376 38.7844C16.8221 38.7881 17.0996 38.6957 17.3251 38.5219L20.5735 36.0938H21.4266L24.6751 38.5219C24.834 38.6435 25.0191 38.7261 25.2157 38.7632C25.4123 38.8002 25.6149 38.7906 25.8071 38.7352C27.3197 38.3218 28.7747 37.721 30.1383 36.9469C30.3116 36.8471 30.4604 36.7098 30.5739 36.5452C30.6874 36.3806 30.7628 36.1928 30.7946 35.9954L31.3688 31.9594C31.5657 31.7626 31.7954 31.5493 31.9594 31.3688L35.9954 30.7946C36.1928 30.7628 36.3806 30.6874 36.5452 30.5739C36.7098 30.4604 36.8471 30.3116 36.9469 30.1383C37.721 28.7747 38.3218 27.3197 38.7352 25.8071C38.7906 25.6149 38.8002 25.4123 38.7632 25.2157C38.7261 25.0191 38.6435 24.834 38.5219 24.6751ZM34.9618 28.2844L31.1391 28.8258C30.844 28.8742 30.5731 29.0183 30.368 29.236C30.1712 29.4493 29.5641 30.0727 29.2688 30.3352C29.0292 30.5411 28.8719 30.8266 28.8258 31.1391L28.2844 34.9618C27.4672 35.398 26.6102 35.7551 25.7251 36.0282L22.6243 33.6985C22.3747 33.5121 22.065 33.4244 21.7548 33.4524H20.2454C19.9351 33.4244 19.6254 33.5121 19.3758 33.6985L16.2751 36.0282C15.3899 35.7551 14.5329 35.398 13.7157 34.9618L13.1743 31.1391C13.1282 30.8266 12.9709 30.5411 12.7313 30.3352C12.3517 30.0048 11.9954 29.6485 11.6649 29.2688C11.459 29.0292 11.1736 28.8719 10.861 28.8258L7.03835 28.2844C6.60902 27.464 6.25219 26.6076 5.97194 25.7251L8.30163 22.6243C8.47055 22.3839 8.56213 22.0977 8.56413 21.804C8.54772 21.5087 8.53131 20.6555 8.54772 20.2454C8.57571 19.9351 8.48807 19.6254 8.30163 19.3758L5.97194 16.2751C6.25219 15.3925 6.60902 14.5361 7.03835 13.7157L10.861 13.1743C11.1736 13.1282 11.459 12.9709 11.6649 12.7313C11.9954 12.3517 12.3517 11.9954 12.7313 11.6649C12.9709 11.459 13.1282 11.1736 13.1743 10.861L13.7157 7.03835C14.5361 6.60902 15.3925 6.25219 16.2751 5.97194L19.3758 8.30163C19.6254 8.48807 19.9351 8.57571 20.2454 8.54772C20.7376 8.53131 21.2626 8.53131 21.7548 8.54772C22.065 8.57571 22.3747 8.48807 22.6243 8.30163L25.7251 5.97194C26.6102 6.24505 27.4672 6.60214 28.2844 7.03835L28.8258 10.861C28.8719 11.1736 29.0292 11.459 29.2688 11.6649C29.6485 11.9954 30.0048 12.3517 30.3352 12.7313C30.5411 12.9709 30.8266 13.1282 31.1391 13.1743L34.9618 13.7157C35.398 14.5329 35.7551 15.3899 36.0282 16.2751L33.6985 19.3758C33.5296 19.6162 33.438 19.9024 33.436 20.1962C33.4524 20.4915 33.4688 21.3446 33.4524 21.7548C33.4244 22.065 33.5121 22.3747 33.6985 22.6243L36.0282 25.7251C35.7551 26.6102 35.398 27.4672 34.9618 28.2844Z" fill="#323232"/>
</svg>
