<svg width="30" height="30" viewBox="0 0 30 30" fill="none" xmlns="http://www.w3.org/2000/svg">
<path fill-rule="evenodd" clip-rule="evenodd" d="M13.2 3.30001C10.5743 3.30001 8.05623 4.34305 6.19962 6.19966C4.34301 8.05627 3.29998 10.5744 3.29998 13.2C3.29998 15.8257 4.34301 18.3438 6.19962 20.2004C8.05623 22.057 10.5743 23.1 13.2 23.1C15.8256 23.1 18.3437 22.057 20.2003 20.2004C22.0569 18.3438 23.1 15.8257 23.1 13.2C23.1 10.5744 22.0569 8.05627 20.2003 6.19966C18.3437 4.34305 15.8256 3.30001 13.2 3.30001ZM0.599976 13.2C0.600146 11.1852 1.08348 9.19984 2.00943 7.41042C2.93538 5.62101 4.27695 4.07973 5.92159 2.91589C7.56624 1.75204 9.46601 0.999566 11.4615 0.721581C13.4571 0.443596 15.4901 0.648208 17.3903 1.31825C19.2904 1.9883 21.0021 3.10424 22.3819 4.57246C23.7616 6.04068 24.7692 7.81838 25.32 9.75642C25.8708 11.6945 25.9488 13.7363 25.5475 15.7108C25.1462 17.6852 24.2773 19.5346 23.0136 21.1038L29.004 27.096C29.1366 27.2196 29.243 27.3686 29.3168 27.5342C29.3906 27.6998 29.4302 27.8786 29.4334 28.0599C29.4366 28.2411 29.4033 28.4212 29.3354 28.5893C29.2675 28.7574 29.1664 28.9101 29.0382 29.0383C28.9101 29.1665 28.7573 29.2675 28.5893 29.3354C28.4212 29.4033 28.2411 29.4367 28.0598 29.4335C27.8786 29.4303 27.6998 29.3906 27.5342 29.3168C27.3686 29.243 27.2196 29.1367 27.096 29.004L21.1038 23.0136C19.2526 24.5047 17.0173 25.4417 14.6562 25.7164C12.2951 25.9912 9.9044 25.5924 7.76028 24.5662C5.61617 23.5399 3.80608 21.9281 2.53907 19.9169C1.27206 17.9057 0.599814 15.5771 0.599976 13.2Z" fill="#323232"/>
</svg>
