<svg width="40" height="40" viewBox="0 0 40 40" fill="none" xmlns="http://www.w3.org/2000/svg">
<path d="M20 3.75C16.7861 3.75 13.6443 4.70305 10.972 6.48862C8.29969 8.27419 6.21689 10.8121 4.98696 13.7814C3.75704 16.7507 3.43524 20.018 4.06225 23.1702C4.68926 26.3224 6.23692 29.2179 8.50952 31.4905C10.7821 33.7631 13.6776 35.3108 16.8298 35.9378C19.982 36.5648 23.2493 36.243 26.2186 35.013C29.1879 33.7831 31.7258 31.7003 33.5114 29.028C35.297 26.3557 36.25 23.2139 36.25 20C36.2459 15.6915 34.5325 11.5607 31.4859 8.51408C28.4394 5.46751 24.3085 3.75414 20 3.75ZM20 33.75C17.2805 33.75 14.6221 32.9436 12.3609 31.4327C10.0997 29.9218 8.33737 27.7744 7.29666 25.2619C6.25596 22.7494 5.98366 19.9847 6.51421 17.3175C7.04476 14.6503 8.35432 12.2003 10.2773 10.2773C12.2003 8.35431 14.6503 7.04475 17.3175 6.5142C19.9848 5.98366 22.7494 6.25595 25.2619 7.29666C27.7744 8.33736 29.9218 10.0997 31.4327 12.3609C32.9436 14.6221 33.75 17.2805 33.75 20C33.7459 23.6455 32.2959 27.1404 29.7182 29.7182C27.1404 32.2959 23.6455 33.7459 20 33.75ZM22.5 27.5C22.5 27.8315 22.3683 28.1495 22.1339 28.3839C21.8995 28.6183 21.5815 28.75 21.25 28.75H20C19.6685 28.75 19.3505 28.6183 19.1161 28.3839C18.8817 28.1495 18.75 27.8315 18.75 27.5V20C18.4185 20 18.1005 19.8683 17.8661 19.6339C17.6317 19.3995 17.5 19.0815 17.5 18.75C17.5 18.4185 17.6317 18.1005 17.8661 17.8661C18.1005 17.6317 18.4185 17.5 18.75 17.5H20C20.3315 17.5 20.6495 17.6317 20.8839 17.8661C21.1183 18.1005 21.25 18.4185 21.25 18.75V26.25C21.5815 26.25 21.8995 26.3817 22.1339 26.6161C22.3683 26.8505 22.5 27.1685 22.5 27.5ZM17.8125 13.125C17.8125 12.7542 17.9225 12.3916 18.1285 12.0833C18.3345 11.775 18.6274 11.5346 18.97 11.3927C19.3126 11.2508 19.6896 11.2137 20.0533 11.286C20.417 11.3584 20.7511 11.537 21.0133 11.7992C21.2756 12.0614 21.4541 12.3955 21.5265 12.7592C21.5988 13.1229 21.5617 13.4999 21.4198 13.8425C21.2779 14.1851 21.0375 14.478 20.7292 14.684C20.4209 14.89 20.0583 15 19.6875 15C19.1902 15 18.7133 14.8025 18.3617 14.4508C18.0101 14.0992 17.8125 13.6223 17.8125 13.125Z" fill="#787878"/>
</svg>
