<svg width="42" height="42" viewBox="0 0 42 42" fill="none" xmlns="http://www.w3.org/2000/svg">
<path d="M21 3.5C25.7548 3.5 26.348 3.5175 28.2135 3.605C30.0772 3.6925 31.346 3.98475 32.4625 4.41875C33.6175 4.86325 34.5905 5.46525 35.5635 6.4365C36.4534 7.31132 37.1419 8.36953 37.5813 9.5375C38.0135 10.6522 38.3075 11.9227 38.395 13.7865C38.4773 15.652 38.5 16.2452 38.5 21C38.5 25.7548 38.4825 26.348 38.395 28.2135C38.3075 30.0772 38.0135 31.346 37.5813 32.4625C37.1432 33.6311 36.4545 34.6896 35.5635 35.5635C34.6884 36.4531 33.6303 37.1416 32.4625 37.5813C31.3477 38.0135 30.0772 38.3075 28.2135 38.395C26.348 38.4773 25.7548 38.5 21 38.5C16.2452 38.5 15.652 38.4825 13.7865 38.395C11.9227 38.3075 10.654 38.0135 9.5375 37.5813C8.36907 37.1428 7.31067 36.4542 6.4365 35.5635C5.54646 34.6888 4.85788 33.6306 4.41875 32.4625C3.98475 31.3477 3.6925 30.0772 3.605 28.2135C3.52275 26.348 3.5 25.7548 3.5 21C3.5 16.2452 3.5175 15.652 3.605 13.7865C3.6925 11.921 3.98475 10.654 4.41875 9.5375C4.85666 8.36881 5.54541 7.31031 6.4365 6.4365C7.31092 5.54615 8.36925 4.85753 9.5375 4.41875C10.654 3.98475 11.921 3.6925 13.7865 3.605C15.652 3.52275 16.2452 3.5 21 3.5ZM21 12.25C18.6794 12.25 16.4538 13.1719 14.8128 14.8128C13.1719 16.4538 12.25 18.6794 12.25 21C12.25 23.3206 13.1719 25.5462 14.8128 27.1872C16.4538 28.8281 18.6794 29.75 21 29.75C23.3206 29.75 25.5462 28.8281 27.1872 27.1872C28.8281 25.5462 29.75 23.3206 29.75 21C29.75 18.6794 28.8281 16.4538 27.1872 14.8128C25.5462 13.1719 23.3206 12.25 21 12.25ZM32.375 11.8125C32.375 11.2323 32.1445 10.6759 31.7343 10.2657C31.3241 9.85547 30.7677 9.625 30.1875 9.625C29.6073 9.625 29.0509 9.85547 28.6407 10.2657C28.2305 10.6759 28 11.2323 28 11.8125C28 12.3927 28.2305 12.9491 28.6407 13.3593C29.0509 13.7695 29.6073 14 30.1875 14C30.7677 14 31.3241 13.7695 31.7343 13.3593C32.1445 12.9491 32.375 12.3927 32.375 11.8125ZM21 15.75C22.3924 15.75 23.7277 16.3031 24.7123 17.2877C25.6969 18.2723 26.25 19.6076 26.25 21C26.25 22.3924 25.6969 23.7277 24.7123 24.7123C23.7277 25.6969 22.3924 26.25 21 26.25C19.6076 26.25 18.2723 25.6969 17.2877 24.7123C16.3031 23.7277 15.75 22.3924 15.75 21C15.75 19.6076 16.3031 18.2723 17.2877 17.2877C18.2723 16.3031 19.6076 15.75 21 15.75Z" fill="#323232"/>
</svg>
