<svg width="135" height="135" viewBox="0 0 135 135" fill="none" xmlns="http://www.w3.org/2000/svg">
<path d="M79.4253 60.9981L94.875 26.0001M58.8865 61.7731L41 26.0001M73.1634 59.3528L56.8931 26.0001M79.79 26.0001L75.48 36.3606M45.1442 84.0193C45.1442 90.614 47.764 96.9386 52.4271 101.602C57.0903 106.265 63.4149 108.885 70.0096 108.885C76.6043 108.885 82.9289 106.265 87.5921 101.602C92.2553 96.9386 94.875 90.614 94.875 84.0193C94.875 77.4246 92.2553 71.1 87.5921 66.4368C82.9289 61.7736 76.6043 59.1539 70.0096 59.1539C63.4149 59.1539 57.0903 61.7736 52.4271 66.4368C47.764 71.1 45.1442 77.4246 45.1442 84.0193Z" stroke="#323232" stroke-width="3" stroke-linecap="round" stroke-linejoin="round"/>
<path d="M63.7932 79.8753L72.0817 73.659V94.3802" stroke="#323232" stroke-width="3" stroke-linecap="round" stroke-linejoin="round"/>
</svg>
