<svg width="36" height="33" viewBox="0 0 36 33" fill="none" xmlns="http://www.w3.org/2000/svg">
<path d="M34.4719 11.6508L18.7219 1.15078C18.5061 1.01358 18.2557 0.940704 18 0.940704C17.7443 0.940704 17.4939 1.01358 17.2781 1.15078L1.52812 11.6508C1.34513 11.7695 1.19506 11.9325 1.09181 12.1246C0.988569 12.3168 0.93549 12.5319 0.937494 12.75V29.8125C0.937494 30.5087 1.21406 31.1764 1.70634 31.6687C2.19862 32.1609 2.8663 32.4375 3.56249 32.4375H32.4375C33.1337 32.4375 33.8014 32.1609 34.2936 31.6687C34.7859 31.1764 35.0625 30.5087 35.0625 29.8125V12.75C35.0645 12.5319 35.0114 12.3168 34.9082 12.1246C34.8049 11.9325 34.6549 11.7695 34.4719 11.6508ZM12.8648 21.9375L3.56249 28.5V15.293L12.8648 21.9375ZM15.5555 23.25H20.4445L29.7305 29.8125H6.26952L15.5555 23.25ZM23.1352 21.9375L32.4375 15.293V28.5L23.1352 21.9375ZM18 3.825L31.4367 12.7828L20.4445 20.625H15.5555L4.56327 12.7828L18 3.825Z" fill="#323232"/>
</svg>
