<svg width="42" height="42" viewBox="0 0 42 42" fill="none" xmlns="http://www.w3.org/2000/svg">
<path d="M15.0937 7.21875C15.0937 6.05061 15.4401 4.90869 16.0891 3.93742C16.7381 2.96614 17.6605 2.20912 18.7397 1.76209C19.8189 1.31506 21.0065 1.1981 22.1522 1.42599C23.2979 1.65388 24.3503 2.2164 25.1763 3.0424C26.0023 3.86841 26.5648 4.9208 26.7927 6.0665C27.0206 7.2122 26.9036 8.39975 26.4566 9.47898C26.0096 10.5582 25.2525 11.4806 24.2813 12.1296C23.31 12.7786 22.1681 13.125 20.9999 13.125C20.2243 13.125 19.4563 12.9722 18.7397 12.6754C18.0231 12.3786 17.372 11.9435 16.8236 11.3951C16.2751 10.8467 15.8401 10.1956 15.5433 9.47898C15.2465 8.7624 15.0937 7.99437 15.0937 7.21875V7.21875ZM20.9999 10.5C21.6489 10.5 22.2833 10.3076 22.8229 9.94701C23.3625 9.58646 23.7831 9.074 24.0314 8.47443C24.2798 7.87486 24.3447 7.21511 24.2181 6.57861C24.0915 5.94211 23.779 5.35745 23.3201 4.89856C22.8612 4.43967 22.2766 4.12716 21.6401 4.00055C21.0036 3.87394 20.3438 3.93892 19.7443 4.18727C19.1447 4.43562 18.6322 4.85619 18.2717 5.39579C17.9111 5.93539 17.7187 6.56978 17.7187 7.21875C17.723 8.08766 18.0701 8.91976 18.6845 9.53418C19.2989 10.1486 20.131 10.4957 20.9999 10.5V10.5ZM7.2515 22.8867L13.6992 14.5852L13.814 14.4703C14.2395 14.0423 14.7458 13.703 15.3034 13.4721C15.861 13.2411 16.4589 13.1232 17.0624 13.125H24.9374C25.541 13.1232 26.1389 13.2411 26.6965 13.4721C27.2541 13.703 27.7604 14.0423 28.1859 14.4703L28.3007 14.5852L34.7484 22.8867C35.3641 23.5024 35.71 24.3375 35.71 25.2082C35.71 26.0789 35.3641 26.914 34.7484 27.5297C34.1327 28.1454 33.2976 28.4913 32.4269 28.4913C31.5562 28.4913 30.7211 28.1454 30.1054 27.5297L27.7921 25.725L31.0406 36.0117C31.3782 36.7749 31.4076 37.6391 31.1226 38.4234C30.8201 39.2419 30.207 39.9081 29.4163 40.2773C29.0265 40.4622 28.6038 40.5676 28.1728 40.5873C27.7418 40.607 27.3112 40.5407 26.9062 40.3922C26.1253 40.0998 25.4818 39.5264 25.1015 38.7844L20.9999 32.3203L16.8984 38.7844C16.5181 39.5264 15.8745 40.0998 15.0937 40.3922C14.7301 40.521 14.3474 40.5876 13.9617 40.5891C13.4845 40.5914 13.0132 40.4848 12.5835 40.2773C11.7929 39.9081 11.1798 39.2419 10.8773 38.4234C10.5922 37.6391 10.6216 36.7749 10.9593 36.0117L14.2077 25.725L11.8945 27.5297C11.2788 28.1454 10.4437 28.4913 9.57298 28.4913C8.70226 28.4913 7.86719 28.1454 7.2515 27.5297C6.6358 26.914 6.28991 26.0789 6.28991 25.2082C6.28991 24.3375 6.6358 23.5024 7.2515 22.8867V22.8867ZM9.17103 25.6102C9.29834 25.7278 9.46529 25.7931 9.63861 25.7931C9.81193 25.7931 9.97888 25.7278 10.1062 25.6102L10.221 25.4953L15.9304 21.0656C16.1513 20.8973 16.4199 20.8034 16.6976 20.7974C16.9753 20.7914 17.2477 20.8736 17.4757 21.0323C17.7037 21.191 17.8754 21.4179 17.9663 21.6803C18.0571 21.9428 18.0623 22.2273 17.9812 22.493L13.4367 36.8648C13.4176 36.9206 13.3957 36.9754 13.371 37.0289C13.332 37.1046 13.3102 37.188 13.3074 37.2732C13.3045 37.3583 13.3207 37.443 13.3546 37.5211C13.3803 37.6032 13.4227 37.6792 13.4792 37.7441C13.5357 37.8091 13.605 37.8616 13.6827 37.8984C13.7613 37.9378 13.8474 37.9597 13.9352 37.9625C14.0231 37.9653 14.1104 37.9491 14.1913 37.9148C14.2709 37.8881 14.3441 37.8451 14.4062 37.7886C14.4683 37.7322 14.5181 37.6634 14.5523 37.5867C14.5857 37.5411 14.6133 37.4915 14.6343 37.4391L19.8843 29.1703C20.0048 28.9841 20.1701 28.831 20.3649 28.725C20.5598 28.619 20.7781 28.5635 20.9999 28.5635C21.2218 28.5635 21.4401 28.619 21.6349 28.725C21.8298 28.831 21.995 28.9841 22.1156 29.1703L27.3656 37.4391C27.3866 37.4915 27.4142 37.5411 27.4476 37.5867C27.4818 37.6634 27.5315 37.7322 27.5937 37.7886C27.6558 37.8451 27.7289 37.8881 27.8085 37.9148C27.8894 37.9491 27.9768 37.9653 28.0646 37.9625C28.1524 37.9597 28.2386 37.9378 28.3171 37.8984C28.3949 37.8616 28.4642 37.8091 28.5207 37.7441C28.5771 37.6792 28.6196 37.6032 28.6452 37.5211C28.6792 37.443 28.6953 37.3583 28.6925 37.2732C28.6896 37.188 28.6679 37.1046 28.6288 37.0289C28.6041 36.9754 28.5822 36.9206 28.5632 36.8648L24.0187 22.493C23.9341 22.2248 23.9379 21.9366 24.0295 21.6708C24.121 21.405 24.2955 21.1756 24.5273 21.0164C24.7547 20.8557 25.0283 20.7736 25.3066 20.7824C25.5849 20.7913 25.8528 20.8907 26.0695 21.0656L31.7788 25.4953L31.8937 25.6102C32.0177 25.7342 32.1859 25.8038 32.3613 25.8038C32.5366 25.8038 32.7048 25.7342 32.8288 25.6102C32.9528 25.4862 33.0225 25.318 33.0225 25.1426C33.0225 24.9672 32.9528 24.799 32.8288 24.675L32.714 24.5602L26.2827 16.275C25.9179 15.9345 25.4365 15.7466 24.9374 15.75H17.0624C16.5634 15.7466 16.082 15.9345 15.7171 16.275L9.28587 24.5602L9.17103 24.675C9.10858 24.7375 9.05905 24.8117 9.02527 24.8933C8.99149 24.9749 8.97412 25.0624 8.97415 25.1508C8.97835 25.3235 9.04884 25.488 9.17103 25.6102V25.6102Z" fill="#323232"/>
</svg>
