<svg width="33" height="33" viewBox="0 0 33 33" fill="none" xmlns="http://www.w3.org/2000/svg">
<path d="M20.2 2.31641C20.2693 2.06301 20.4354 1.84701 20.6625 1.71503C20.8897 1.58304 21.1596 1.54566 21.4141 1.61094C23.8051 2.2536 25.9852 3.51341 27.7359 5.26412C29.4866 7.01483 30.7464 9.19493 31.3891 11.5859C31.4236 11.712 31.4328 11.8437 31.4159 11.9733C31.399 12.1029 31.3565 12.2279 31.2909 12.3409C31.2252 12.4539 31.1377 12.5527 31.0334 12.6315C30.9291 12.7104 30.8102 12.7676 30.6836 12.8L30.4375 12.8328C30.2195 12.8325 30.0079 12.7598 29.8356 12.6262C29.6634 12.4926 29.5404 12.3056 29.4859 12.0945C28.9296 10.0396 27.8447 8.16615 26.3393 6.66074C24.8339 5.15534 22.9604 4.07046 20.9055 3.51407C20.6556 3.44471 20.4425 3.28109 20.3109 3.05769C20.1793 2.83429 20.1395 2.56854 20.2 2.31641ZM19.5438 8.5836C20.7092 8.90264 21.7714 9.51976 22.6258 10.3742C23.4802 11.2286 24.0974 12.2908 24.4164 13.4563C24.4709 13.6673 24.5939 13.8543 24.7661 13.9879C24.9383 14.1215 25.15 14.1942 25.368 14.1945L25.6141 14.1617C25.8652 14.0888 26.0785 13.922 26.2099 13.6959C26.3412 13.4699 26.3805 13.2019 26.3195 12.9477C25.9142 11.4462 25.1221 10.0773 24.0224 8.97759C22.9227 7.87788 21.5538 7.08582 20.0523 6.68047C19.7981 6.6195 19.5301 6.65876 19.3041 6.79012C19.078 6.92149 18.9112 7.13486 18.8383 7.38594C18.7734 7.63829 18.8113 7.90606 18.9435 8.13056C19.0758 8.35506 19.2916 8.51797 19.5438 8.5836ZM32.6688 24.6781C32.3937 26.8168 31.3496 28.7822 29.7313 30.2073C28.113 31.6324 26.0313 32.4196 23.875 32.4219C11.0289 32.4219 0.578125 21.9711 0.578125 9.125C0.580444 6.96871 1.36765 4.887 2.7927 3.26872C4.21776 1.65044 6.18319 0.606271 8.32188 0.331255C8.814 0.273645 9.31155 0.376718 9.74029 0.625089C10.169 0.87346 10.5059 1.25381 10.7008 1.70938L13.9984 9.40391C14.148 9.75206 14.2098 10.1316 14.1783 10.5092C14.1469 10.8868 14.0231 11.251 13.818 11.5695L11.0781 15.7367C11.051 15.7837 11.0354 15.8365 11.0326 15.8906C11.0297 15.9448 11.0397 15.9989 11.0617 16.0484C12.3219 18.6323 14.4135 20.718 17.0008 21.9711C17.051 21.9936 17.1063 22.0025 17.1611 21.9967C17.2158 21.991 17.2681 21.9708 17.3125 21.9383L21.4305 19.1984C21.7459 18.9865 22.1096 18.8574 22.4881 18.823C22.8666 18.7886 23.2476 18.85 23.5961 19.0016L31.2906 22.2992C31.7462 22.4941 32.1265 22.831 32.3749 23.2597C32.6233 23.6884 32.7264 24.186 32.6688 24.6781ZM30.7164 24.432C30.722 24.3636 30.7061 24.2952 30.6708 24.2363C30.6354 24.1774 30.5825 24.1311 30.5195 24.1039L22.825 20.8063C22.7742 20.7867 22.7194 20.7795 22.6652 20.7852C22.611 20.7909 22.5589 20.8093 22.5133 20.8391L18.4117 23.5789C18.0796 23.797 17.6973 23.9266 17.301 23.9553C16.9047 23.9841 16.5077 23.911 16.1477 23.743C13.1634 22.2902 10.7498 19.8823 9.28984 16.9016C9.11935 16.5458 9.04337 16.1521 9.06923 15.7584C9.09509 15.3647 9.22192 14.9843 9.4375 14.6539L12.1609 10.4867C12.1934 10.4423 12.2136 10.39 12.2194 10.3353C12.2251 10.2805 12.2163 10.2252 12.1938 10.175L8.89609 2.48047C8.87093 2.42279 8.82971 2.37357 8.77735 2.33866C8.72499 2.30376 8.6637 2.28464 8.60078 2.2836H8.56797C6.9063 2.50202 5.38026 3.31578 4.273 4.57389C3.16575 5.832 2.55244 7.44905 2.54688 9.125C2.55122 14.7802 4.79968 20.2026 8.79854 24.2015C12.7974 28.2003 18.2198 30.4488 23.875 30.4531C25.551 30.4476 27.168 29.8343 28.4261 28.727C29.6842 27.6197 30.498 26.0937 30.7164 24.432Z" fill="#323232"/>
</svg>
