<svg width="44" height="43" viewBox="0 0 44 43" fill="none" xmlns="http://www.w3.org/2000/svg">
<path d="M34 12C35.3261 12 36.5979 11.4732 37.5355 10.5355C38.4732 9.59785 39 8.32608 39 7C39 5.67392 38.4732 4.40215 37.5355 3.46447C36.5979 2.52678 35.3261 2 34 2C32.6739 2 31.4021 2.52678 30.4645 3.46447C29.5268 4.40215 29 5.67392 29 7C29 8.32608 29.5268 9.59785 30.4645 10.5355C31.4021 11.4732 32.6739 12 34 12Z" stroke="#323232" stroke-width="2.5"/>
<path d="M9.99991 13.77L18.0029 10.998L28.9999 16.247L18.0029 24.444L28.9999 31.684L22.0079 40.998M33.3199 18.643L36.0019 20.102L41.9999 14.466M14.8489 28.545L11.8789 32.457L2.00391 37.997" stroke="#323232" stroke-width="2.5" stroke-linecap="round" stroke-linejoin="round"/>
</svg>
