<svg width="30" height="38" viewBox="0 0 30 38" fill="none" xmlns="http://www.w3.org/2000/svg">
<path d="M26.8289 34.75H18.7242C20.0899 33.5304 21.3776 32.2263 22.5797 30.8453C27.075 25.6773 29.4539 20.2141 29.4539 15.0625C29.4539 11.2334 27.9328 7.5612 25.2253 4.85365C22.5177 2.14609 18.8455 0.625 15.0164 0.625C11.1874 0.625 7.51512 2.14609 4.80756 4.85365C2.10001 7.5612 0.578918 11.2334 0.578918 15.0625C0.578918 20.2141 2.95782 25.6773 7.46954 30.8453C8.66738 32.2303 9.95533 33.5347 11.325 34.75H3.20392C2.85582 34.75 2.52198 34.8883 2.27584 35.1344C2.0297 35.3806 1.89142 35.7144 1.89142 36.0625C1.89142 36.4106 2.0297 36.7444 2.27584 36.9906C2.52198 37.2367 2.85582 37.375 3.20392 37.375H26.8289C27.177 37.375 27.5109 37.2367 27.757 36.9906C28.0031 36.7444 28.1414 36.4106 28.1414 36.0625C28.1414 35.7144 28.0031 35.3806 27.757 35.1344C27.5109 34.8883 27.177 34.75 26.8289 34.75ZM3.20392 15.0625C3.20392 11.9296 4.44845 8.92508 6.66372 6.7098C8.87899 4.49453 11.8835 3.25 15.0164 3.25C18.1493 3.25 21.1538 4.49453 23.3691 6.7098C25.5844 8.92508 26.8289 11.9296 26.8289 15.0625C26.8289 24.4469 17.7235 32.2891 15.0164 34.4219C12.3094 32.2891 3.20392 24.4469 3.20392 15.0625ZM21.5789 15.0625C21.5789 13.7646 21.194 12.4958 20.4729 11.4166C19.7518 10.3374 18.7269 9.49624 17.5278 8.99954C16.3286 8.50284 15.0091 8.37288 13.7361 8.6261C12.4631 8.87931 11.2938 9.50433 10.376 10.4221C9.45825 11.3399 8.83323 12.5092 8.58002 13.7822C8.3268 15.0552 8.45676 16.3747 8.95346 17.5739C9.45016 18.773 10.2913 19.7979 11.3705 20.519C12.4497 21.2401 13.7185 21.625 15.0164 21.625C16.7569 21.625 18.4261 20.9336 19.6568 19.7029C20.8875 18.4722 21.5789 16.803 21.5789 15.0625ZM11.0789 15.0625C11.0789 14.2837 11.3098 13.5225 11.7425 12.8749C12.1752 12.2274 12.7901 11.7227 13.5096 11.4247C14.2291 11.1267 15.0208 11.0487 15.7846 11.2007C16.5484 11.3526 17.25 11.7276 17.8007 12.2783C18.3513 12.8289 18.7263 13.5305 18.8783 14.2943C19.0302 15.0581 18.9522 15.8498 18.6542 16.5693C18.3562 17.2888 17.8515 17.9038 17.204 18.3364C16.5565 18.7691 15.7952 19 15.0164 19C13.9735 18.9957 12.9744 18.5795 12.237 17.842C11.4995 17.1045 11.0832 16.1055 11.0789 15.0625Z" fill="#323232"/>
</svg>
