<svg width="28" height="27" viewBox="0 0 28 27" fill="none" xmlns="http://www.w3.org/2000/svg">
<path d="M12.6226 1.48957C13.0442 0.392391 14.6398 0.392391 15.0627 1.48957L17.7901 8.94366C17.8853 9.18648 18.0528 9.39512 18.2707 9.54204C18.4885 9.68895 18.7464 9.76724 19.0102 9.76655H25.7128C26.9513 9.76655 27.4915 11.2875 26.5178 12.0324L21.7482 16.2665C21.5345 16.4285 21.3784 16.6532 21.3022 16.9082C21.2259 17.1632 21.2336 17.4355 21.3239 17.686L23.0658 24.9698C23.49 26.1398 22.1171 27.1447 21.0788 26.4245L14.6003 22.3686C14.3784 22.2147 14.1138 22.1322 13.8426 22.1322C13.5715 22.1322 13.3069 22.2147 13.085 22.3686L6.60645 26.4245C5.56951 27.1447 4.19526 26.1385 4.61953 24.9698L6.36138 17.686C6.45174 17.4355 6.45935 17.1632 6.38313 16.9082C6.30691 16.6532 6.15077 16.4285 5.93711 16.2665L1.16744 12.0324C0.192428 11.2875 0.735274 9.76655 1.97117 9.76655H8.67375C8.93765 9.76742 9.1956 9.68921 9.41346 9.54227C9.63133 9.39533 9.79884 9.18659 9.89383 8.94366L12.6212 1.48957H12.6226Z" fill="#92D80C"/>
</svg>
