<svg width="23" height="22" viewBox="0 0 23 22" fill="none" xmlns="http://www.w3.org/2000/svg">
<path d="M10.9669 1.61717C11.2831 0.794278 12.4798 0.794278 12.797 1.61717L14.8426 7.20773C14.914 7.38985 15.0396 7.54633 15.203 7.65651C15.3664 7.7667 15.5598 7.82541 15.7577 7.8249H20.7846C21.7135 7.8249 22.1187 8.96563 21.3884 9.5243L17.8111 12.6998C17.6509 12.8214 17.5338 12.9899 17.4766 13.1811C17.4195 13.3724 17.4252 13.5766 17.4929 13.7645L18.7993 19.2273C19.1175 20.1048 18.0878 20.8585 17.3091 20.3184L12.4502 17.2764C12.2838 17.161 12.0854 17.0991 11.882 17.0991C11.6786 17.0991 11.4802 17.161 11.3138 17.2764L6.45484 20.3184C5.67713 20.8585 4.64645 20.1039 4.96464 19.2273L6.27103 13.7645C6.3388 13.5766 6.34451 13.3724 6.28735 13.1811C6.23018 12.9899 6.11308 12.8214 5.95284 12.6998L2.37558 9.5243C1.64432 8.96563 2.05146 7.8249 2.97838 7.8249H8.00531C8.20324 7.82555 8.3967 7.76689 8.5601 7.65668C8.7235 7.54648 8.84913 7.38992 8.92037 7.20773L10.9659 1.61717H10.9669Z" stroke="#323232" stroke-width="2" stroke-linecap="round" stroke-linejoin="round"/>
</svg>
