<svg width="24" height="31" viewBox="0 0 24 31" fill="none" xmlns="http://www.w3.org/2000/svg">
<path d="M1.33325 29.3333L9.51659 28.46L14.0599 19.73L15.8783 11L7.69659 12.7467L10.4233 16.2383M17.6966 21.4767H21.3333V29.3333M19.6666 7.66667C20.5506 7.66667 21.3985 7.31548 22.0236 6.69036C22.6487 6.06524 22.9999 5.21739 22.9999 4.33333C22.9999 3.44928 22.6487 2.60143 22.0236 1.97631C21.3985 1.35119 20.5506 1 19.6666 1C18.7825 1 17.9347 1.35119 17.3096 1.97631C16.6844 2.60143 16.3333 3.44928 16.3333 4.33333C16.3333 5.21739 16.6844 6.06524 17.3096 6.69036C17.9347 7.31548 18.7825 7.66667 19.6666 7.66667Z" stroke="#323232" stroke-width="2" stroke-linecap="round" stroke-linejoin="round"/>
</svg>
