<svg width="42" height="42" viewBox="0 0 42 42" fill="none" xmlns="http://www.w3.org/2000/svg">
<path fill-rule="evenodd" clip-rule="evenodd" d="M39.7605 10.8281C40.0526 9.90281 39.7605 9.23016 38.4686 9.23016H34.1726C33.0889 9.23016 32.5886 9.81914 32.2965 10.4491C32.2965 10.4491 30.0866 15.8304 27.0006 19.3192C25.9998 20.3282 25.5413 20.6645 24.999 20.6645C24.707 20.6645 24.3313 20.3282 24.3313 19.4037V10.7846C24.3313 9.69199 23.9982 9.1875 23.0803 9.1875H16.3242C15.6565 9.1875 15.2398 9.69199 15.2398 10.1965C15.2398 11.2473 16.7828 11.5 16.9493 14.4424V20.8359C16.9493 22.2231 16.7032 22.4766 16.1569 22.4766C14.6975 22.4766 11.153 17.0535 9.02672 10.8741C8.61328 9.65016 8.19328 9.1875 7.10883 9.1875H2.77184C1.52086 9.1875 1.3125 9.77566 1.3125 10.4065C1.3125 11.5418 2.77184 17.2586 8.10961 24.8251C11.6542 29.9931 16.6999 32.7707 21.2453 32.7707C23.9982 32.7707 24.3313 32.1398 24.3313 31.089V27.1794C24.3313 25.9186 24.5815 25.7086 25.4576 25.7086C26.0827 25.7086 27.2089 26.0441 29.7527 28.5247C32.6714 31.4672 33.1718 32.8125 34.7985 32.8125H39.0936C40.3446 32.8125 40.9287 32.1817 40.5948 30.9627C40.2199 29.7437 38.8016 27.9784 36.9666 25.8768C35.9658 24.7004 34.4646 23.397 34.0061 22.7661C33.381 21.9253 33.5475 21.589 34.0061 20.8327C33.9642 20.8327 39.2191 13.3498 39.7605 10.8248" fill="#323232"/>
</svg>
