<svg width="32" height="32" viewBox="0 0 32 32" fill="none" xmlns="http://www.w3.org/2000/svg">
<path fill-rule="evenodd" clip-rule="evenodd" d="M28.388 9.11111C28.5808 8.48444 28.388 8.02889 27.5348 8.02889H24.6981C23.9826 8.02889 23.6522 8.42778 23.4593 8.85444C23.4593 8.85444 22.0001 12.4989 19.9623 14.8617C19.3015 15.545 18.9987 15.7728 18.6406 15.7728C18.4478 15.7728 18.1997 15.545 18.1997 14.9189V9.08167C18.1997 8.34167 17.9798 8 17.3737 8H12.9125C12.4716 8 12.1964 8.34167 12.1964 8.68333C12.1964 9.395 13.2153 9.56611 13.3253 11.5589V15.8889C13.3253 16.8283 13.1628 17 12.802 17C11.8384 17 9.49784 13.3272 8.09384 9.14222C7.82084 8.31333 7.54351 8 6.82742 8H3.96363C3.13758 8 3 8.39833 3 8.82556C3 9.59444 3.96363 13.4661 7.48826 18.5906C9.8288 22.0906 13.1606 23.9717 16.162 23.9717C17.9798 23.9717 18.1997 23.5444 18.1997 22.8328V20.185C18.1997 19.3311 18.3649 19.1889 18.9434 19.1889C19.3562 19.1889 20.0999 19.4161 21.7796 21.0961C23.7069 23.0889 24.0373 24 25.1114 24H27.9476C28.7736 24 29.1593 23.5728 28.9388 22.7472C28.6913 21.9217 27.7547 20.7261 26.543 19.3028C25.8822 18.5061 24.8909 17.6233 24.5882 17.1961C24.1754 16.6267 24.2854 16.3989 24.5882 15.8867C24.5605 15.8867 28.0305 10.8189 28.388 9.10889" fill="#C6C6C6"/>
<rect x="0.5" y="0.5" width="31" height="31" rx="5.5" stroke="#C6C6C6"/>
</svg>
