<svg width="32" height="32" viewBox="0 0 32 32" fill="none" xmlns="http://www.w3.org/2000/svg">
<path d="M20.2851 21.0067L21.7151 24.0817C21.7151 24.0817 28.1434 25.4467 28.1434 28.6934C28.1434 31 25.2834 31 25.2834 31H17.6667L13.9167 28.9167" stroke="#323232" stroke-width="2" stroke-linecap="round" stroke-linejoin="round"/>
<path d="M11.715 21.0067L10.2867 24.0817C10.2867 24.0817 3.85669 25.4467 3.85669 28.6934C3.85669 31 6.71669 31 6.71669 31H10.1667L13.9167 28.9167L18.5 26" stroke="#323232" stroke-width="2" stroke-linecap="round" stroke-linejoin="round"/>
<path d="M1 22.5433C1 22.5433 4.57167 21.775 6.715 21.0067C8.85667 10.2433 15.2833 11.0117 16 11.0117C16.715 11.0117 23.1433 10.2433 25.285 21.0067C27.4283 21.7733 31 22.5433 31 22.5433M16 7.66667C16.8841 7.66667 17.7319 7.31548 18.357 6.69036C18.9821 6.06524 19.3333 5.21739 19.3333 4.33333C19.3333 3.44928 18.9821 2.60143 18.357 1.97631C17.7319 1.35119 16.8841 1 16 1C15.1159 1 14.2681 1.35119 13.643 1.97631C13.0179 2.60143 12.6667 3.44928 12.6667 4.33333C12.6667 5.21739 13.0179 6.06524 13.643 6.69036C14.2681 7.31548 15.1159 7.66667 16 7.66667Z" stroke="#323232" stroke-width="2" stroke-linecap="round" stroke-linejoin="round"/>
</svg>
